<svg xmlns="http://www.w3.org/2000/svg" xmlns:xlink="http://www.w3.org/1999/xlink" width="500" zoomAndPan="magnify" viewBox="0 0 375 374.999991" height="500" preserveAspectRatio="xMidYMid meet" version="1.0"><defs><clipPath id="d43315ee64"><path d="M 308 227 L 315.75 227 L 315.75 236 L 308 236 Z M 308 227 " clip-rule="nonzero"/></clipPath><clipPath id="08eada5504"><path d="M 208 114.074219 L 216 114.074219 L 216 122 L 208 122 Z M 208 114.074219 " clip-rule="nonzero"/></clipPath><clipPath id="32f002b601"><path d="M 47 114.074219 L 312 114.074219 L 312 311 L 47 311 Z M 47 114.074219 " clip-rule="nonzero"/></clipPath><clipPath id="90584bf435"><path d="M 37.5 121 L 54 121 L 54 123 L 37.5 123 Z M 37.5 121 " clip-rule="nonzero"/></clipPath><clipPath id="2042cea306"><path d="M 37.5 142 L 54 142 L 54 144 L 37.5 144 Z M 37.5 142 " clip-rule="nonzero"/></clipPath><clipPath id="9e47a01175"><path d="M 37.5 163 L 54 163 L 54 165 L 37.5 165 Z M 37.5 163 " clip-rule="nonzero"/></clipPath><clipPath id="bb00f1feb2"><path d="M 37.5 184 L 54 184 L 54 186 L 37.5 186 Z M 37.5 184 " clip-rule="nonzero"/></clipPath><clipPath id="92f9224dda"><path d="M 37.5 205 L 54 205 L 54 207 L 37.5 207 Z M 37.5 205 " clip-rule="nonzero"/></clipPath><clipPath id="28cacb96a9"><path d="M 37.5 226 L 54 226 L 54 228 L 37.5 228 Z M 37.5 226 " clip-rule="nonzero"/></clipPath><clipPath id="b60d15abc8"><path d="M 37.5 247 L 54 247 L 54 249 L 37.5 249 Z M 37.5 247 " clip-rule="nonzero"/></clipPath><clipPath id="62bcf21d6d"><path d="M 37.5 268 L 54 268 L 54 270 L 37.5 270 Z M 37.5 268 " clip-rule="nonzero"/></clipPath><clipPath id="1e5976aa08"><path d="M 37.5 289 L 54 289 L 54 291 L 37.5 291 Z M 37.5 289 " clip-rule="nonzero"/></clipPath><clipPath id="e19958e8ef"><path d="M 65 303 L 68 303 L 68 319.574219 L 65 319.574219 Z M 65 303 " clip-rule="nonzero"/></clipPath><clipPath id="31aaa04f6e"><path d="M 87 303 L 89 303 L 89 319.574219 L 87 319.574219 Z M 87 303 " clip-rule="nonzero"/></clipPath><clipPath id="1fdf49c20a"><path d="M 108 303 L 110 303 L 110 319.574219 L 108 319.574219 Z M 108 303 " clip-rule="nonzero"/></clipPath><clipPath id="453c34b8e1"><path d="M 129 303 L 131 303 L 131 319.574219 L 129 319.574219 Z M 129 303 " clip-rule="nonzero"/></clipPath><clipPath id="9b026d08cb"><path d="M 150 303 L 152 303 L 152 319.574219 L 150 319.574219 Z M 150 303 " clip-rule="nonzero"/></clipPath><clipPath id="323724ec97"><path d="M 171 303 L 173 303 L 173 319.574219 L 171 319.574219 Z M 171 303 " clip-rule="nonzero"/></clipPath><clipPath id="5546d792c8"><path d="M 192 303 L 194 303 L 194 319.574219 L 192 319.574219 Z M 192 303 " clip-rule="nonzero"/></clipPath><clipPath id="2b5049a03c"><path d="M 213 303 L 215 303 L 215 319.574219 L 213 319.574219 Z M 213 303 " clip-rule="nonzero"/></clipPath><clipPath id="9b9c04a4a0"><path d="M 234 303 L 236 303 L 236 319.574219 L 234 319.574219 Z M 234 303 " clip-rule="nonzero"/></clipPath><clipPath id="c896bcc90a"><path d="M 255 303 L 257 303 L 257 319.574219 L 255 319.574219 Z M 255 303 " clip-rule="nonzero"/></clipPath><clipPath id="9861204d92"><path d="M 275 303 L 277 303 L 277 319.574219 L 275 319.574219 Z M 275 303 " clip-rule="nonzero"/></clipPath><clipPath id="d933a4cb7b"><path d="M 296 303 L 298 303 L 298 319.574219 L 296 319.574219 Z M 296 303 " clip-rule="nonzero"/></clipPath></defs><rect x="-37.5" width="450" fill="#ffffff" y="-37.499999" height="449.999989" fill-opacity="1"/><rect x="-37.5" width="450" fill="#2e266d" y="-37.499999" height="449.999989" fill-opacity="1"/><path fill="#338b8c" d="M 61.636719 302.277344 L 60.242188 300.5625 L 122.601562 249.855469 L 122.84375 249.796875 L 177.289062 236.605469 L 234.449219 186.914062 L 234.664062 186.847656 L 301.539062 165.300781 L 302.21875 167.40625 L 235.558594 188.878906 L 178.332031 238.625 L 123.609375 251.886719 L 61.636719 302.277344 " fill-opacity="1" fill-rule="nonzero"/><path fill="#338b8c" d="M 126.976562 250.875 C 126.976562 253.011719 125.242188 254.738281 123.105469 254.738281 C 120.96875 254.738281 119.238281 253.011719 119.238281 250.875 C 119.238281 248.738281 120.96875 247.007812 123.105469 247.007812 C 125.242188 247.007812 126.976562 248.738281 126.976562 250.875 " fill-opacity="1" fill-rule="nonzero"/><path fill="#338b8c" d="M 181.410156 237.753906 C 181.410156 239.886719 179.675781 241.621094 177.539062 241.621094 C 175.40625 241.621094 173.675781 239.886719 173.675781 237.753906 C 173.675781 235.617188 175.40625 233.886719 177.539062 233.886719 C 179.675781 233.886719 181.410156 235.617188 181.410156 237.753906 " fill-opacity="1" fill-rule="nonzero"/><path fill="#338b8c" d="M 239.027344 188.910156 C 239.027344 191.046875 237.296875 192.777344 235.160156 192.777344 C 233.023438 192.777344 231.289062 191.046875 231.289062 188.910156 C 231.289062 186.773438 233.023438 185.046875 235.160156 185.046875 C 237.296875 185.046875 239.027344 186.773438 239.027344 188.910156 " fill-opacity="1" fill-rule="nonzero"/><path fill="#338b8c" d="M 303.734375 167.449219 C 303.734375 169.589844 302 171.320312 299.867188 171.320312 C 297.730469 171.320312 295.996094 169.589844 295.996094 167.449219 C 295.996094 165.316406 297.730469 163.585938 299.867188 163.585938 C 302 163.585938 303.734375 165.316406 303.734375 167.449219 " fill-opacity="1" fill-rule="nonzero"/><path fill="#e0a11b" d="M 69.515625 302.4375 L 68.644531 300.402344 L 150.785156 265.375 L 170.460938 277.367188 L 222.132812 224.566406 L 262.394531 229.792969 L 311.871094 229.792969 L 311.871094 232 L 262.253906 232 L 222.941406 226.902344 L 170.8125 280.171875 L 150.605469 267.851562 L 69.515625 302.4375 " fill-opacity="1" fill-rule="nonzero"/><path fill="#e0a11b" d="M 154.566406 267.445312 C 154.566406 269.582031 152.832031 271.308594 150.695312 271.308594 C 148.558594 271.308594 146.828125 269.582031 146.828125 267.445312 C 146.828125 265.308594 148.558594 263.578125 150.695312 263.578125 C 152.832031 263.578125 154.566406 265.308594 154.566406 267.445312 " fill-opacity="1" fill-rule="nonzero"/><path fill="#e0a11b" d="M 174.734375 278.769531 C 174.734375 280.902344 173.003906 282.636719 170.867188 282.636719 C 168.730469 282.636719 167 280.902344 167 278.769531 C 167 276.632812 168.730469 274.902344 170.867188 274.902344 C 173.003906 274.902344 174.734375 276.632812 174.734375 278.769531 " fill-opacity="1" fill-rule="nonzero"/><path fill="#e0a11b" d="M 225.574219 225.734375 C 225.574219 227.871094 223.839844 229.601562 221.703125 229.601562 C 219.566406 229.601562 217.835938 227.871094 217.835938 225.734375 C 217.835938 223.597656 219.566406 221.867188 221.703125 221.867188 C 223.839844 221.867188 225.574219 223.597656 225.574219 225.734375 " fill-opacity="1" fill-rule="nonzero"/><path fill="#e0a11b" d="M 265.359375 231.257812 C 265.359375 233.394531 263.628906 235.125 261.492188 235.125 C 259.355469 235.125 257.625 233.394531 257.625 231.257812 C 257.625 229.121094 259.355469 227.390625 261.492188 227.390625 C 263.628906 227.390625 265.359375 229.121094 265.359375 231.257812 " fill-opacity="1" fill-rule="nonzero"/><g clip-path="url(#d43315ee64)"><path fill="#e0a11b" d="M 315.742188 231.257812 C 315.742188 233.394531 314.007812 235.125 311.871094 235.125 C 309.734375 235.125 308.003906 233.394531 308.003906 231.257812 C 308.003906 229.121094 309.734375 227.390625 311.871094 227.390625 C 314.007812 227.390625 315.742188 229.121094 315.742188 231.257812 " fill-opacity="1" fill-rule="nonzero"/></g><path fill="#d73f23" d="M 164.9375 196.648438 C 164.9375 198.78125 163.207031 200.511719 161.070312 200.511719 C 158.933594 200.511719 157.199219 198.78125 157.199219 196.648438 C 157.199219 194.511719 158.933594 192.777344 161.070312 192.777344 C 163.207031 192.777344 164.9375 194.511719 164.9375 196.648438 " fill-opacity="1" fill-rule="nonzero"/><path fill="#d73f23" d="M 100.832031 221.867188 C 100.832031 224.003906 99.097656 225.734375 96.960938 225.734375 C 94.824219 225.734375 93.09375 224.003906 93.09375 221.867188 C 93.09375 219.734375 94.824219 218 96.960938 218 C 99.097656 218 100.832031 219.734375 100.832031 221.867188 " fill-opacity="1" fill-rule="nonzero"/><g clip-path="url(#08eada5504)"><path fill="#d73f23" d="M 215.777344 117.960938 C 215.777344 120.097656 214.046875 121.828125 211.910156 121.828125 C 209.773438 121.828125 208.039062 120.097656 208.039062 117.960938 C 208.039062 115.824219 209.773438 114.09375 211.910156 114.09375 C 214.046875 114.09375 215.777344 115.824219 215.777344 117.960938 " fill-opacity="1" fill-rule="nonzero"/></g><path fill="#d73f23" d="M 291.210938 142.867188 C 291.210938 145.003906 289.476562 146.734375 287.339844 146.734375 C 285.203125 146.734375 283.472656 145.003906 283.472656 142.867188 C 283.472656 140.730469 285.203125 139 287.339844 139 C 289.476562 139 291.210938 140.730469 291.210938 142.867188 " fill-opacity="1" fill-rule="nonzero"/><path fill="#d73f23" d="M 56.59375 301.925781 L 54.628906 300.910156 L 96.171875 220.988281 L 160.332031 195.746094 L 211.445312 116.640625 L 287.6875 141.820312 L 286.992188 143.917969 L 212.375 119.277344 L 161.804688 197.542969 L 97.75 222.746094 L 56.59375 301.925781 " fill-opacity="1" fill-rule="nonzero"/><g clip-path="url(#32f002b601)"><path fill="#4a3529" d="M 311.871094 310.074219 L 47.691406 310.074219 L 47.691406 114.09375 L 48.796875 114.09375 L 48.796875 308.96875 L 311.871094 308.96875 L 311.871094 310.074219 " fill-opacity="1" fill-rule="nonzero"/></g><g clip-path="url(#90584bf435)"><path fill="#4a3529" d="M 53.769531 122.378906 L 37.5625 122.378906 L 37.5625 121.273438 L 53.769531 121.273438 L 53.769531 122.378906 " fill-opacity="1" fill-rule="nonzero"/></g><g clip-path="url(#2042cea306)"><path fill="#4a3529" d="M 53.769531 143.417969 L 37.5625 143.417969 L 37.5625 142.316406 L 53.769531 142.316406 L 53.769531 143.417969 " fill-opacity="1" fill-rule="nonzero"/></g><g clip-path="url(#9e47a01175)"><path fill="#4a3529" d="M 53.769531 164.460938 L 37.5625 164.460938 L 37.5625 163.355469 L 53.769531 163.355469 L 53.769531 164.460938 " fill-opacity="1" fill-rule="nonzero"/></g><g clip-path="url(#bb00f1feb2)"><path fill="#4a3529" d="M 53.769531 185.5 L 37.5625 185.5 L 37.5625 184.398438 L 53.769531 184.398438 L 53.769531 185.5 " fill-opacity="1" fill-rule="nonzero"/></g><g clip-path="url(#92f9224dda)"><path fill="#4a3529" d="M 53.769531 206.542969 L 37.5625 206.542969 L 37.5625 205.4375 L 53.769531 205.4375 L 53.769531 206.542969 " fill-opacity="1" fill-rule="nonzero"/></g><g clip-path="url(#28cacb96a9)"><path fill="#4a3529" d="M 53.769531 227.582031 L 37.5625 227.582031 L 37.5625 226.476562 L 53.769531 226.476562 L 53.769531 227.582031 " fill-opacity="1" fill-rule="nonzero"/></g><g clip-path="url(#b60d15abc8)"><path fill="#4a3529" d="M 53.769531 248.625 L 37.5625 248.625 L 37.5625 247.515625 L 53.769531 247.515625 L 53.769531 248.625 " fill-opacity="1" fill-rule="nonzero"/></g><g clip-path="url(#62bcf21d6d)"><path fill="#4a3529" d="M 53.769531 269.664062 L 37.5625 269.664062 L 37.5625 268.558594 L 53.769531 268.558594 L 53.769531 269.664062 " fill-opacity="1" fill-rule="nonzero"/></g><g clip-path="url(#1e5976aa08)"><path fill="#4a3529" d="M 53.769531 290.703125 L 37.5625 290.703125 L 37.5625 289.597656 L 53.769531 289.597656 L 53.769531 290.703125 " fill-opacity="1" fill-rule="nonzero"/></g><g clip-path="url(#e19958e8ef)"><path fill="#4a3529" d="M 67.0625 319.609375 L 65.957031 319.609375 L 65.957031 303.402344 L 67.0625 303.402344 L 67.0625 319.609375 " fill-opacity="1" fill-rule="nonzero"/></g><g clip-path="url(#31aaa04f6e)"><path fill="#4a3529" d="M 88.109375 319.609375 L 87.003906 319.609375 L 87.003906 303.402344 L 88.109375 303.402344 L 88.109375 319.609375 " fill-opacity="1" fill-rule="nonzero"/></g><g clip-path="url(#1fdf49c20a)"><path fill="#4a3529" d="M 109.15625 319.609375 L 108.050781 319.609375 L 108.050781 303.402344 L 109.15625 303.402344 L 109.15625 319.609375 " fill-opacity="1" fill-rule="nonzero"/></g><g clip-path="url(#453c34b8e1)"><path fill="#4a3529" d="M 130.203125 319.609375 L 129.097656 319.609375 L 129.097656 303.402344 L 130.203125 303.402344 L 130.203125 319.609375 " fill-opacity="1" fill-rule="nonzero"/></g><g clip-path="url(#9b026d08cb)"><path fill="#4a3529" d="M 151.25 319.609375 L 150.144531 319.609375 L 150.144531 303.402344 L 151.25 303.402344 L 151.25 319.609375 " fill-opacity="1" fill-rule="nonzero"/></g><g clip-path="url(#323724ec97)"><path fill="#4a3529" d="M 172.296875 319.609375 L 171.191406 319.609375 L 171.191406 303.402344 L 172.296875 303.402344 L 172.296875 319.609375 " fill-opacity="1" fill-rule="nonzero"/></g><g clip-path="url(#5546d792c8)"><path fill="#4a3529" d="M 193.34375 319.609375 L 192.238281 319.609375 L 192.238281 303.402344 L 193.34375 303.402344 L 193.34375 319.609375 " fill-opacity="1" fill-rule="nonzero"/></g><g clip-path="url(#2b5049a03c)"><path fill="#4a3529" d="M 214.390625 319.609375 L 213.285156 319.609375 L 213.285156 303.402344 L 214.390625 303.402344 L 214.390625 319.609375 " fill-opacity="1" fill-rule="nonzero"/></g><g clip-path="url(#9b9c04a4a0)"><path fill="#4a3529" d="M 235.4375 319.609375 L 234.332031 319.609375 L 234.332031 303.402344 L 235.4375 303.402344 L 235.4375 319.609375 " fill-opacity="1" fill-rule="nonzero"/></g><g clip-path="url(#c896bcc90a)"><path fill="#4a3529" d="M 256.210938 319.609375 L 255.105469 319.609375 L 255.105469 303.402344 L 256.210938 303.402344 L 256.210938 319.609375 " fill-opacity="1" fill-rule="nonzero"/></g><g clip-path="url(#9861204d92)"><path fill="#4a3529" d="M 276.984375 319.609375 L 275.878906 319.609375 L 275.878906 303.402344 L 276.984375 303.402344 L 276.984375 319.609375 " fill-opacity="1" fill-rule="nonzero"/></g><g clip-path="url(#d933a4cb7b)"><path fill="#4a3529" d="M 297.757812 319.609375 L 296.652344 319.609375 L 296.652344 303.402344 L 297.757812 303.402344 L 297.757812 319.609375 " fill-opacity="1" fill-rule="nonzero"/></g></svg>