<svg xmlns="http://www.w3.org/2000/svg" xmlns:xlink="http://www.w3.org/1999/xlink" width="500" zoomAndPan="magnify" viewBox="0 0 375 374.999991" height="500" preserveAspectRatio="xMidYMid meet" version="1.0"><defs><clipPath id="10fe3472e1"><path d="M 292 125.4375 L 337.5 125.4375 L 337.5 170 L 292 170 Z M 292 125.4375 " clip-rule="nonzero"/></clipPath></defs><rect x="-37.5" width="450" fill="#ffffff" y="-37.499999" height="449.999989" fill-opacity="1"/><rect x="-37.5" width="450" fill="#b2d5ed" y="-37.499999" height="449.999989" fill-opacity="1"/><path fill="#1b2538" d="M 297.710938 159.539062 C 281.949219 173.4375 264.734375 188.789062 248.96875 202.6875 C 248.976562 202.699219 248.984375 202.710938 248.992188 202.726562 C 249.152344 202.945312 249.304688 203.1875 249.441406 203.457031 C 249.59375 203.722656 249.714844 203.984375 249.8125 204.25 C 250.980469 206.835938 251.664062 209.621094 251.867188 212.4375 C 268.964844 197.359375 287.515625 180.832031 304.613281 165.753906 C 301.921875 164.164062 299.550781 162.042969 297.710938 159.539062 Z M 297.710938 159.539062 " fill-opacity="1" fill-rule="nonzero"/><path fill="#1b2538" d="M 168.820312 159.621094 C 168.578125 163.054688 167.515625 166.355469 165.816406 169.277344 C 180.144531 181.90625 195.925781 195.992188 210.253906 208.625 C 211 205.488281 212.398438 202.523438 214.433594 200.003906 C 199.710938 187.027344 183.539062 172.597656 168.820312 159.621094 Z M 168.820312 159.621094 " fill-opacity="1" fill-rule="nonzero"/><path fill="#1b2538" d="M 73.484375 209.34375 C 69.882812 206.613281 65.371094 204.929688 60.246094 204.652344 C 47.78125 203.984375 38.773438 215.261719 38.152344 226.746094 C 37.484375 239.214844 48.765625 248.21875 60.246094 248.835938 C 72.210938 249.484375 80.96875 239.109375 82.199219 228.125 C 82.300781 227.703125 82.363281 227.257812 82.335938 226.746094 C 82.363281 226.246094 82.300781 225.804688 82.207031 225.390625 C 81.859375 222.074219 80.9375 219.023438 79.492188 216.351562 C 96.269531 201.566406 113.765625 186.050781 130.539062 171.265625 C 128.574219 168.710938 127.175781 165.730469 126.5625 162.46875 C 109.109375 177.851562 90.933594 193.960938 73.484375 209.34375 Z M 47.402344 226.742188 C 46.507812 210.179688 72.199219 210.265625 73.089844 226.742188 C 72.199219 243.300781 48.292969 243.300781 47.402344 226.742188 Z M 47.402344 226.742188 " fill-opacity="1" fill-rule="nonzero"/><path fill="#1b2538" d="M 169.441406 156.175781 C 169.417969 156.003906 169.390625 155.835938 169.355469 155.667969 C 169.34375 155.433594 169.320312 155.195312 169.273438 154.949219 C 167.183594 143.832031 156.890625 136 145.617188 136.945312 C 134.152344 137.910156 125.808594 147.671875 125.496094 158.929688 C 125.453125 160.390625 125.578125 161.816406 125.835938 163.191406 C 126.449219 166.453125 127.851562 169.433594 129.8125 171.988281 C 134.164062 177.648438 141.265625 181.207031 148.644531 180.988281 C 156.335938 180.757812 162.898438 176.261719 166.542969 170.003906 C 168.242188 167.082031 169.304688 163.78125 169.546875 160.347656 C 169.644531 158.972656 169.617188 157.578125 169.441406 156.175781 Z M 148.644531 171.742188 C 140.992188 172.425781 135.113281 166.261719 134.742188 158.929688 C 134.410156 152.328125 139.855469 147.355469 145.886719 146.164062 C 152.960938 144.769531 158.816406 150.53125 160.253906 156.910156 C 160.847656 164.238281 156.425781 171.042969 148.644531 171.742188 Z M 148.644531 171.742188 " fill-opacity="1" fill-rule="nonzero"/><path fill="#1b2538" d="M 250.164062 202.730469 C 250.03125 202.457031 249.878906 202.21875 249.71875 202 C 249.710938 201.984375 249.703125 201.972656 249.695312 201.960938 C 243.277344 191.824219 230.535156 188.5625 219.871094 194.195312 C 217.40625 195.5 215.347656 197.242188 213.707031 199.277344 C 211.671875 201.796875 210.273438 204.761719 209.53125 207.898438 C 208.199219 213.507812 208.957031 219.671875 211.902344 224.800781 C 217.742188 234.976562 230.558594 237.71875 240.765625 233.101562 C 249.253906 229.261719 253.214844 220.371094 252.59375 211.707031 C 252.394531 208.894531 251.710938 206.105469 250.542969 203.523438 C 250.441406 203.257812 250.320312 202.996094 250.164062 202.730469 Z M 236.945312 224.675781 C 231.457031 227.925781 224.042969 225.953125 220.390625 220.914062 C 216.15625 215.074219 217.761719 206.84375 223.605469 202.75 C 230.007812 198.265625 238.4375 200.960938 242.179688 207.394531 C 245.382812 213.804688 242.996094 221.085938 236.945312 224.675781 Z M 236.945312 224.675781 " fill-opacity="1" fill-rule="nonzero"/><g clip-path="url(#10fe3472e1)"><path fill="#1b2538" d="M 337.136719 146.632812 C 336.8125 135.027344 327.019531 126.257812 315.839844 125.574219 C 315.597656 125.542969 315.34375 125.527344 315.074219 125.535156 C 314.808594 125.527344 314.558594 125.542969 314.316406 125.574219 C 302.703125 126.253906 293.980469 135.027344 293.007812 146.636719 C 292.582031 151.710938 294.160156 156.433594 296.984375 160.265625 C 298.820312 162.769531 301.195312 164.886719 303.886719 166.480469 C 307.804688 168.796875 312.40625 169.996094 317.042969 169.609375 C 328.796875 168.621094 337.464844 158.25 337.136719 146.632812 Z M 316.773438 160.390625 C 308.542969 162.015625 302.046875 154.191406 302.257812 146.636719 C 302.449219 139.875 308.695312 134.960938 315.078125 134.78125 C 321.742188 134.96875 327.324219 139.878906 327.890625 146.636719 C 328.476562 153.636719 323.359375 159.089844 316.773438 160.390625 Z M 316.773438 160.390625 " fill-opacity="1" fill-rule="nonzero"/></g></svg>